<?xml version="1.0" encoding="UTF-8" standalone="no"?>
<!DOCTYPE svg PUBLIC "-//W3C//DTD SVG 1.1//EN"
 "http://www.w3.org/Graphics/SVG/1.1/DTD/svg11.dtd">
<!-- Generated by graphviz version 12.2.1 (20241206.2353)
 -->
<!-- Title: G Pages: 1 -->
<svg width="759pt" height="570pt"
 viewBox="0.00 0.00 758.95 569.77" xmlns="http://www.w3.org/2000/svg" xmlns:xlink="http://www.w3.org/1999/xlink">
<g id="graph0" class="graph" transform="scale(1 1) rotate(0) translate(21.6 548.17)">
<title>G</title>
<polygon fill="#111111" stroke="none" points="-21.6,21.6 -21.6,-548.17 737.35,-548.17 737.35,21.6 -21.6,21.6"/>
<!-- app/globals.css -->
<g id="node1" class="node">
<title>app/globals.css</title>
<path fill="none" stroke="#c6c5fe" d="M360.46,-64.57C360.46,-64.57 267.29,-64.57 267.29,-64.57 263.33,-64.57 259.38,-60.61 259.38,-56.66 259.38,-56.66 259.38,-48.74 259.38,-48.74 259.38,-44.78 263.33,-40.82 267.29,-40.82 267.29,-40.82 360.46,-40.82 360.46,-40.82 364.42,-40.82 368.38,-44.78 368.38,-48.74 368.38,-48.74 368.38,-56.66 368.38,-56.66 368.38,-60.61 364.42,-64.57 360.46,-64.57"/>
<text text-anchor="middle" x="313.88" y="-47.27" font-family="Arial" font-size="14.00" fill="#c6c5fe">app/globals.css</text>
</g>
<!-- styles/base.css -->
<g id="node2" class="node">
<title>styles/base.css</title>
<path fill="none" stroke="#c6c5fe" d="M532.83,-127.57C532.83,-127.57 441.17,-127.57 441.17,-127.57 437.21,-127.57 433.25,-123.61 433.25,-119.66 433.25,-119.66 433.25,-111.74 433.25,-111.74 433.25,-107.78 437.21,-103.82 441.17,-103.82 441.17,-103.82 532.83,-103.82 532.83,-103.82 536.79,-103.82 540.75,-107.78 540.75,-111.74 540.75,-111.74 540.75,-119.66 540.75,-119.66 540.75,-123.61 536.79,-127.57 532.83,-127.57"/>
<text text-anchor="middle" x="487" y="-110.27" font-family="Arial" font-size="14.00" fill="#c6c5fe">styles/base.css</text>
</g>
<!-- app/globals.css&#45;&gt;styles/base.css -->
<g id="edge1" class="edge">
<title>app/globals.css&#45;&gt;styles/base.css</title>
<path fill="none" stroke="#757575" d="M340.12,-64.92C359.23,-73.89 386.27,-85.97 410.75,-94.7 416.04,-96.59 421.6,-98.41 427.18,-100.15"/>
<polygon fill="#757575" stroke="#757575" points="425.88,-103.41 436.46,-102.93 427.89,-96.71 425.88,-103.41"/>
</g>
<!-- styles/components.css -->
<g id="node3" class="node">
<title>styles/components.css</title>
<path fill="none" stroke="#cfffac" d="M555.33,-85.57C555.33,-85.57 418.67,-85.57 418.67,-85.57 414.71,-85.57 410.75,-81.61 410.75,-77.66 410.75,-77.66 410.75,-69.74 410.75,-69.74 410.75,-65.78 414.71,-61.82 418.67,-61.82 418.67,-61.82 555.33,-61.82 555.33,-61.82 559.29,-61.82 563.25,-65.78 563.25,-69.74 563.25,-69.74 563.25,-77.66 563.25,-77.66 563.25,-81.61 559.29,-85.57 555.33,-85.57"/>
<text text-anchor="middle" x="487" y="-68.27" font-family="Arial" font-size="14.00" fill="#cfffac">styles/components.css</text>
</g>
<!-- app/globals.css&#45;&gt;styles/components.css -->
<g id="edge2" class="edge">
<title>app/globals.css&#45;&gt;styles/components.css</title>
<path fill="none" stroke="#757575" d="M368.55,-59.28C378.27,-60.48 388.63,-61.75 399.01,-63.02"/>
<polygon fill="#757575" stroke="#757575" points="398.41,-66.48 408.76,-64.22 399.26,-59.53 398.41,-66.48"/>
</g>
<!-- styles/responsive.css -->
<g id="node4" class="node">
<title>styles/responsive.css</title>
<path fill="none" stroke="#cfffac" d="M550.83,-43.57C550.83,-43.57 423.17,-43.57 423.17,-43.57 419.21,-43.57 415.25,-39.61 415.25,-35.66 415.25,-35.66 415.25,-27.74 415.25,-27.74 415.25,-23.78 419.21,-19.82 423.17,-19.82 423.17,-19.82 550.83,-19.82 550.83,-19.82 554.79,-19.82 558.75,-23.78 558.75,-27.74 558.75,-27.74 558.75,-35.66 558.75,-35.66 558.75,-39.61 554.79,-43.57 550.83,-43.57"/>
<text text-anchor="middle" x="487" y="-26.27" font-family="Arial" font-size="14.00" fill="#cfffac">styles/responsive.css</text>
</g>
<!-- app/globals.css&#45;&gt;styles/responsive.css -->
<g id="edge3" class="edge">
<title>app/globals.css&#45;&gt;styles/responsive.css</title>
<path fill="none" stroke="#757575" d="M368.55,-46.11C379.69,-44.74 391.68,-43.27 403.58,-41.81"/>
<polygon fill="#757575" stroke="#757575" points="403.93,-45.3 413.43,-40.6 403.08,-38.35 403.93,-45.3"/>
</g>
<!-- styles/theme.css -->
<g id="node5" class="node">
<title>styles/theme.css</title>
<path fill="none" stroke="#cfffac" d="M707.83,-65.57C707.83,-65.57 607.17,-65.57 607.17,-65.57 603.21,-65.57 599.25,-61.61 599.25,-57.66 599.25,-57.66 599.25,-49.74 599.25,-49.74 599.25,-45.78 603.21,-41.82 607.17,-41.82 607.17,-41.82 707.83,-41.82 707.83,-41.82 711.79,-41.82 715.75,-45.78 715.75,-49.74 715.75,-49.74 715.75,-57.66 715.75,-57.66 715.75,-61.61 711.79,-65.57 707.83,-65.57"/>
<text text-anchor="middle" x="657.5" y="-48.27" font-family="Arial" font-size="14.00" fill="#cfffac">styles/theme.css</text>
</g>
<!-- app/globals.css&#45;&gt;styles/theme.css -->
<g id="edge4" class="edge">
<title>app/globals.css&#45;&gt;styles/theme.css</title>
<path fill="none" stroke="#757575" d="M336.1,-40.34C354.98,-30.1 383.72,-16.36 410.75,-10.7 477.09,3.2 497.05,3.83 563.25,-10.7 585.67,-15.62 609.12,-26.46 626.9,-36.03"/>
<polygon fill="#757575" stroke="#757575" points="624.89,-38.92 635.33,-40.73 628.3,-32.8 624.89,-38.92"/>
</g>
<!-- styles/base.css&#45;&gt;styles/theme.css -->
<g id="edge7" class="edge">
<title>styles/base.css&#45;&gt;styles/theme.css</title>
<path fill="none" stroke="#757575" d="M536.09,-103.38C545.18,-100.74 554.56,-97.8 563.25,-94.7 582.7,-87.75 603.8,-78.61 621.01,-70.72"/>
<polygon fill="#757575" stroke="#757575" points="622.2,-74.03 629.8,-66.64 619.25,-67.68 622.2,-74.03"/>
</g>
<!-- app/layout.tsx -->
<g id="node6" class="node">
<title>app/layout.tsx</title>
<path fill="none" stroke="#c6c5fe" d="M150.21,-64.57C150.21,-64.57 66.79,-64.57 66.79,-64.57 62.83,-64.57 58.88,-60.61 58.88,-56.66 58.88,-56.66 58.88,-48.74 58.88,-48.74 58.88,-44.78 62.83,-40.82 66.79,-40.82 66.79,-40.82 150.21,-40.82 150.21,-40.82 154.17,-40.82 158.12,-44.78 158.12,-48.74 158.12,-48.74 158.12,-56.66 158.12,-56.66 158.12,-60.61 154.17,-64.57 150.21,-64.57"/>
<text text-anchor="middle" x="108.5" y="-47.27" font-family="Arial" font-size="14.00" fill="#c6c5fe">app/layout.tsx</text>
</g>
<!-- app/layout.tsx&#45;&gt;app/globals.css -->
<g id="edge5" class="edge">
<title>app/layout.tsx&#45;&gt;app/globals.css</title>
<path fill="none" stroke="#757575" d="M158.47,-52.7C185.24,-52.7 218.75,-52.7 247.7,-52.7"/>
<polygon fill="#757575" stroke="#757575" points="247.45,-56.2 257.45,-52.7 247.45,-49.2 247.45,-56.2"/>
</g>
<!-- app/not&#45;found.tsx -->
<g id="node7" class="node">
<title>app/not&#45;found.tsx</title>
<path fill="none" stroke="#cfffac" d="M160.71,-106.57C160.71,-106.57 56.29,-106.57 56.29,-106.57 52.33,-106.57 48.38,-102.61 48.38,-98.66 48.38,-98.66 48.38,-90.74 48.38,-90.74 48.38,-86.78 52.33,-82.82 56.29,-82.82 56.29,-82.82 160.71,-82.82 160.71,-82.82 164.67,-82.82 168.62,-86.78 168.62,-90.74 168.62,-90.74 168.62,-98.66 168.62,-98.66 168.62,-102.61 164.67,-106.57 160.71,-106.57"/>
<text text-anchor="middle" x="108.5" y="-89.27" font-family="Arial" font-size="14.00" fill="#cfffac">app/not&#45;found.tsx</text>
</g>
<!-- app/page.tsx -->
<g id="node8" class="node">
<title>app/page.tsx</title>
<path fill="none" stroke="#cfffac" d="M147.21,-148.57C147.21,-148.57 69.79,-148.57 69.79,-148.57 65.83,-148.57 61.88,-144.61 61.88,-140.66 61.88,-140.66 61.88,-132.74 61.88,-132.74 61.88,-128.78 65.83,-124.82 69.79,-124.82 69.79,-124.82 147.21,-124.82 147.21,-124.82 151.17,-124.82 155.12,-128.78 155.12,-132.74 155.12,-132.74 155.12,-140.66 155.12,-140.66 155.12,-144.61 151.17,-148.57 147.21,-148.57"/>
<text text-anchor="middle" x="108.5" y="-131.27" font-family="Arial" font-size="14.00" fill="#cfffac">app/page.tsx</text>
</g>
<!-- app/propiedades/Propiedades.tsx -->
<g id="node9" class="node">
<title>app/propiedades/Propiedades.tsx</title>
<path fill="none" stroke="#cfffac" d="M209.08,-190.57C209.08,-190.57 7.92,-190.57 7.92,-190.57 3.96,-190.57 0,-186.61 0,-182.66 0,-182.66 0,-174.74 0,-174.74 0,-170.78 3.96,-166.82 7.92,-166.82 7.92,-166.82 209.08,-166.82 209.08,-166.82 213.04,-166.82 217,-170.78 217,-174.74 217,-174.74 217,-182.66 217,-182.66 217,-186.61 213.04,-190.57 209.08,-190.57"/>
<text text-anchor="middle" x="108.5" y="-173.27" font-family="Arial" font-size="14.00" fill="#cfffac">app/propiedades/Propiedades.tsx</text>
</g>
<!-- components/Header.tsx -->
<g id="node10" class="node">
<title>components/Header.tsx</title>
<path fill="none" stroke="#cfffac" d="M179.83,-232.57C179.83,-232.57 37.17,-232.57 37.17,-232.57 33.21,-232.57 29.25,-228.61 29.25,-224.66 29.25,-224.66 29.25,-216.74 29.25,-216.74 29.25,-212.78 33.21,-208.82 37.17,-208.82 37.17,-208.82 179.83,-208.82 179.83,-208.82 183.79,-208.82 187.75,-212.78 187.75,-216.74 187.75,-216.74 187.75,-224.66 187.75,-224.66 187.75,-228.61 183.79,-232.57 179.83,-232.57"/>
<text text-anchor="middle" x="108.5" y="-215.27" font-family="Arial" font-size="14.00" fill="#cfffac">components/Header.tsx</text>
</g>
<!-- components/SeoProvide.tsx -->
<g id="node11" class="node">
<title>components/SeoProvide.tsx</title>
<path fill="none" stroke="#c6c5fe" d="M192.96,-274.57C192.96,-274.57 24.04,-274.57 24.04,-274.57 20.08,-274.57 16.12,-270.61 16.12,-266.66 16.12,-266.66 16.12,-258.74 16.12,-258.74 16.12,-254.78 20.08,-250.82 24.04,-250.82 24.04,-250.82 192.96,-250.82 192.96,-250.82 196.92,-250.82 200.88,-254.78 200.88,-258.74 200.88,-258.74 200.88,-266.66 200.88,-266.66 200.88,-270.61 196.92,-274.57 192.96,-274.57"/>
<text text-anchor="middle" x="108.5" y="-257.27" font-family="Arial" font-size="14.00" fill="#c6c5fe">components/SeoProvide.tsx</text>
</g>
<!-- next&#45;seo.config.ts -->
<g id="node12" class="node">
<title>next&#45;seo.config.ts</title>
<path fill="none" stroke="#cfffac" d="M366.83,-274.57C366.83,-274.57 260.92,-274.57 260.92,-274.57 256.96,-274.57 253,-270.61 253,-266.66 253,-266.66 253,-258.74 253,-258.74 253,-254.78 256.96,-250.82 260.92,-250.82 260.92,-250.82 366.83,-250.82 366.83,-250.82 370.79,-250.82 374.75,-254.78 374.75,-258.74 374.75,-258.74 374.75,-266.66 374.75,-266.66 374.75,-270.61 370.79,-274.57 366.83,-274.57"/>
<text text-anchor="middle" x="313.88" y="-257.27" font-family="Arial" font-size="14.00" fill="#cfffac">next&#45;seo.config.ts</text>
</g>
<!-- components/SeoProvide.tsx&#45;&gt;next&#45;seo.config.ts -->
<g id="edge6" class="edge">
<title>components/SeoProvide.tsx&#45;&gt;next&#45;seo.config.ts</title>
<path fill="none" stroke="#757575" d="M201.37,-262.7C214.8,-262.7 228.47,-262.7 241.41,-262.7"/>
<polygon fill="#757575" stroke="#757575" points="241.07,-266.2 251.07,-262.7 241.07,-259.2 241.07,-266.2"/>
</g>
<!-- hooks/useInmuebles.ts -->
<g id="node13" class="node">
<title>hooks/useInmuebles.ts</title>
<path fill="none" stroke="#cfffac" d="M177.96,-316.57C177.96,-316.57 39.04,-316.57 39.04,-316.57 35.08,-316.57 31.12,-312.61 31.12,-308.66 31.12,-308.66 31.12,-300.74 31.12,-300.74 31.12,-296.78 35.08,-292.82 39.04,-292.82 39.04,-292.82 177.96,-292.82 177.96,-292.82 181.92,-292.82 185.88,-296.78 185.88,-300.74 185.88,-300.74 185.88,-308.66 185.88,-308.66 185.88,-312.61 181.92,-316.57 177.96,-316.57"/>
<text text-anchor="middle" x="108.5" y="-299.27" font-family="Arial" font-size="14.00" fill="#cfffac">hooks/useInmuebles.ts</text>
</g>
<!-- lib/Analytics.tsx -->
<g id="node14" class="node">
<title>lib/Analytics.tsx</title>
<path fill="none" stroke="#cfffac" d="M154.71,-358.57C154.71,-358.57 62.29,-358.57 62.29,-358.57 58.33,-358.57 54.38,-354.61 54.38,-350.66 54.38,-350.66 54.38,-342.74 54.38,-342.74 54.38,-338.78 58.33,-334.82 62.29,-334.82 62.29,-334.82 154.71,-334.82 154.71,-334.82 158.67,-334.82 162.62,-338.78 162.62,-342.74 162.62,-342.74 162.62,-350.66 162.62,-350.66 162.62,-354.61 158.67,-358.57 154.71,-358.57"/>
<text text-anchor="middle" x="108.5" y="-341.27" font-family="Arial" font-size="14.00" fill="#cfffac">lib/Analytics.tsx</text>
</g>
<!-- lib/TagManager.tsx -->
<g id="node15" class="node">
<title>lib/TagManager.tsx</title>
<path fill="none" stroke="#cfffac" d="M165.21,-400.57C165.21,-400.57 51.79,-400.57 51.79,-400.57 47.83,-400.57 43.88,-396.61 43.88,-392.66 43.88,-392.66 43.88,-384.74 43.88,-384.74 43.88,-380.78 47.83,-376.82 51.79,-376.82 51.79,-376.82 165.21,-376.82 165.21,-376.82 169.17,-376.82 173.12,-380.78 173.12,-384.74 173.12,-384.74 173.12,-392.66 173.12,-392.66 173.12,-396.61 169.17,-400.57 165.21,-400.57"/>
<text text-anchor="middle" x="108.5" y="-383.27" font-family="Arial" font-size="14.00" fill="#cfffac">lib/TagManager.tsx</text>
</g>
<!-- lib/TagManagerNoScript.tsx -->
<g id="node16" class="node">
<title>lib/TagManagerNoScript.tsx</title>
<path fill="none" stroke="#cfffac" d="M191.46,-442.57C191.46,-442.57 25.54,-442.57 25.54,-442.57 21.58,-442.57 17.62,-438.61 17.62,-434.66 17.62,-434.66 17.62,-426.74 17.62,-426.74 17.62,-422.78 21.58,-418.82 25.54,-418.82 25.54,-418.82 191.46,-418.82 191.46,-418.82 195.42,-418.82 199.38,-422.78 199.38,-426.74 199.38,-426.74 199.38,-434.66 199.38,-434.66 199.38,-438.61 195.42,-442.57 191.46,-442.57"/>
<text text-anchor="middle" x="108.5" y="-425.27" font-family="Arial" font-size="14.00" fill="#cfffac">lib/TagManagerNoScript.tsx</text>
</g>
<!-- services/propiedadesApi.js -->
<g id="node17" class="node">
<title>services/propiedadesApi.js</title>
<path fill="none" stroke="#cfffac" d="M188.83,-484.57C188.83,-484.57 28.17,-484.57 28.17,-484.57 24.21,-484.57 20.25,-480.61 20.25,-476.66 20.25,-476.66 20.25,-468.74 20.25,-468.74 20.25,-464.78 24.21,-460.82 28.17,-460.82 28.17,-460.82 188.83,-460.82 188.83,-460.82 192.79,-460.82 196.75,-464.78 196.75,-468.74 196.75,-468.74 196.75,-476.66 196.75,-476.66 196.75,-480.61 192.79,-484.57 188.83,-484.57"/>
<text text-anchor="middle" x="108.5" y="-467.27" font-family="Arial" font-size="14.00" fill="#cfffac">services/propiedadesApi.js</text>
</g>
<!-- types/inmueble.ts -->
<g id="node18" class="node">
<title>types/inmueble.ts</title>
<path fill="none" stroke="#cfffac" d="M161.46,-526.57C161.46,-526.57 55.54,-526.57 55.54,-526.57 51.58,-526.57 47.62,-522.61 47.62,-518.66 47.62,-518.66 47.62,-510.74 47.62,-510.74 47.62,-506.78 51.58,-502.82 55.54,-502.82 55.54,-502.82 161.46,-502.82 161.46,-502.82 165.42,-502.82 169.38,-506.78 169.38,-510.74 169.38,-510.74 169.38,-518.66 169.38,-518.66 169.38,-522.61 165.42,-526.57 161.46,-526.57"/>
<text text-anchor="middle" x="108.5" y="-509.27" font-family="Arial" font-size="14.00" fill="#cfffac">types/inmueble.ts</text>
</g>
</g>
</svg>
